<svg width="20" height="20" viewBox="0 0 20 20" fill="none" xmlns="http://www.w3.org/2000/svg">
<path d="M14.917 9.08341C12.2503 7.50008 7.79199 7.33341 5.25033 8.12508C4.83366 8.25008 4.41699 8.00008 4.29199 7.62508C4.16699 7.20841 4.41699 6.79175 4.79199 6.66675C7.75033 5.79175 12.6253 5.95842 15.7087 7.79175C16.0837 8.00008 16.2087 8.50008 16.0003 8.87508C15.792 9.16675 15.292 9.29175 14.917 9.08341ZM14.8337 11.4167C14.6253 11.7084 14.2503 11.8334 13.9587 11.6251C11.7087 10.2501 8.29199 9.83342 5.66699 10.6667C5.33366 10.7501 4.95866 10.5834 4.87533 10.2501C4.79199 9.91675 4.95866 9.54175 5.29199 9.45842C8.33366 8.54175 12.0837 9.00008 14.667 10.5834C14.917 10.7084 15.042 11.1251 14.8337 11.4167ZM13.8337 13.7084C13.667 13.9584 13.3753 14.0417 13.1253 13.8751C11.167 12.6667 8.70866 12.4167 5.79199 13.0834C5.50033 13.1667 5.25033 12.9584 5.16699 12.7084C5.08366 12.4167 5.29199 12.1667 5.54199 12.0834C8.70866 11.3751 11.4587 11.6667 13.6253 13.0001C13.917 13.1251 13.9587 13.4584 13.8337 13.7084ZM10.0003 1.66675C8.90598 1.66675 7.82234 1.8823 6.8113 2.30109C5.80025 2.71987 4.88159 3.3337 4.10777 4.10752C2.54497 5.67033 1.66699 7.78994 1.66699 10.0001C1.66699 12.2102 2.54497 14.3298 4.10777 15.8926C4.88159 16.6665 5.80025 17.2803 6.8113 17.6991C7.82234 18.1179 8.90598 18.3334 10.0003 18.3334C12.2105 18.3334 14.3301 17.4554 15.8929 15.8926C17.4557 14.3298 18.3337 12.2102 18.3337 10.0001C18.3337 8.90573 18.1181 7.8221 17.6993 6.81105C17.2805 5.80001 16.6667 4.88135 15.8929 4.10752C15.1191 3.3337 14.2004 2.71987 13.1894 2.30109C12.1783 1.8823 11.0947 1.66675 10.0003 1.66675Z" fill="white"/>
</svg>
