<svg width="20" height="20" viewBox="0 0 20 20" fill="none" xmlns="http://www.w3.org/2000/svg">
<g clip-path="url(#clip0_130_826)">
<path d="M3.33333 8.33334C3.55435 8.33334 3.76631 8.42114 3.92259 8.57742C4.07887 8.7337 4.16667 8.94566 4.16667 9.16667V15C4.16667 15.221 4.07887 15.433 3.92259 15.5893C3.76631 15.7455 3.55435 15.8333 3.33333 15.8333C3.11232 15.8333 2.90036 15.7455 2.74408 15.5893C2.5878 15.433 2.5 15.221 2.5 15V9.16667C2.5 8.94566 2.5878 8.7337 2.74408 8.57742C2.90036 8.42114 3.11232 8.33334 3.33333 8.33334ZM5.83333 9.16667C6.05435 9.16667 6.26631 9.25447 6.42259 9.41075C6.57887 9.56703 6.66667 9.77899 6.66667 10V15C6.66667 15.221 6.57887 15.433 6.42259 15.5893C6.26631 15.7455 6.05435 15.8333 5.83333 15.8333C5.61232 15.8333 5.40036 15.7455 5.24408 15.5893C5.0878 15.433 5 15.221 5 15V10C5 9.77899 5.0878 9.56703 5.24408 9.41075C5.40036 9.25447 5.61232 9.16667 5.83333 9.16667ZM8.33333 5.83334C8.55435 5.83334 8.76631 5.92114 8.92259 6.07742C9.07887 6.2337 9.16667 6.44566 9.16667 6.66667V15C9.16667 15.221 9.07887 15.433 8.92259 15.5893C8.76631 15.7455 8.55435 15.8333 8.33333 15.8333C8.11232 15.8333 7.90036 15.7455 7.74408 15.5893C7.5878 15.433 7.5 15.221 7.5 15V6.66667C7.5 6.44566 7.5878 6.2337 7.74408 6.07742C7.90036 5.92114 8.11232 5.83334 8.33333 5.83334ZM12.5 5.00001C13.7936 4.99996 15.037 5.50131 15.9687 6.39873C16.9005 7.29614 17.4482 8.51977 17.4967 9.81251L17.4992 10.0292C18.2163 10.1314 18.8698 10.4968 19.3323 11.0543C19.7949 11.6118 20.0334 12.3215 20.0015 13.0452C19.9696 13.7689 19.6695 14.4548 19.1596 14.9694C18.6498 15.484 17.9667 15.7905 17.2433 15.8292L17.0833 15.8333H14.1658C13.9534 15.8331 13.7491 15.7518 13.5947 15.606C13.4402 15.4602 13.3473 15.2609 13.3349 15.0488C13.3224 14.8368 13.3914 14.628 13.5277 14.4651C13.664 14.3023 13.8574 14.1976 14.0683 14.1725L14.1667 14.1667H17.0392L17.1542 14.165C17.4542 14.1489 17.7384 14.0252 17.9547 13.8166C18.171 13.608 18.3049 13.3285 18.3319 13.0292C18.359 12.73 18.2773 12.431 18.1018 12.187C17.9264 11.9431 17.669 11.7705 17.3767 11.7008L17.2642 11.6792L15.7892 11.4692L15.8333 9.98001L15.83 9.83334C15.7887 9.00782 15.4421 8.2271 14.8575 7.64271C14.273 7.05833 13.4922 6.71196 12.6667 6.67084L12.5 6.66667C12.2767 6.66667 12.0575 6.68834 11.8433 6.73084L11.6667 6.77167V15C11.6666 15.2041 11.5917 15.4011 11.4561 15.5537C11.3204 15.7062 11.1335 15.8036 10.9308 15.8275L10.8333 15.8333C10.6123 15.8333 10.4004 15.7455 10.2441 15.5893C10.0878 15.433 10 15.221 10 15L9.99917 5.66917C10.7591 5.22941 11.622 4.99854 12.5 5.00001ZM0.833333 10C1.05435 10 1.26631 10.0878 1.42259 10.2441C1.57887 10.4004 1.66667 10.6123 1.66667 10.8333V14.1667C1.66667 14.3877 1.57887 14.5997 1.42259 14.7559C1.26631 14.9122 1.05435 15 0.833333 15C0.61232 15 0.400358 14.9122 0.244078 14.7559C0.0877974 14.5997 0 14.3877 0 14.1667V10.8333C0 10.6123 0.0877974 10.4004 0.244078 10.2441C0.400358 10.0878 0.61232 10 0.833333 10Z" fill="white"/>
</g>
<defs>
<clipPath id="clip0_130_826">
<rect width="20" height="20" fill="white"/>
</clipPath>
</defs>
</svg>
